# xmcd
#
# Track frame offsets:
#	150
#	19513
#	39798
#	58874
#	79124
#	97489
#	115774
#	133544
#	153677
#	170350
#	188278
#	219023
#
# Disc length: 3919 seconds
#
# Revision: 0
# Processed by: cddbd v1.5.2PL0 Copyright (c) Steve Scherf et al.
# Submitted via: EasyCDDAExtractor 11.5.0.1
#
DISCID=910f4d0c
DTITLE=Kimberly Scott - KIMberly Scott
DYEAR=1997
DGENRE=r&B
TTITLE0=Kickin' It By Myself
TTITLE1=Tuck Me In
TTITLE2=I Got Your Back
TTITLE3=You Never Know
TTITLE4=Ain't Nothing But A Party
TTITLE5=Let Your Spirit Fly
TTITLE6=Never Can Say Goodbye
TTITLE7=Don't Leave Me Alone
TTITLE8=Come To Life
TTITLE9=Tuck Me In  (Wyclef's Remix)
TTITLE10=Let Me Be Your Angel
TTITLE11=Data
EXTD=
EXTT0=
EXTT1=
EXTT2=
EXTT3=
EXTT4=
EXTT5=
EXTT6=
EXTT7=
EXTT8=
EXTT9=
EXTT10=
EXTT11=
PLAYORDER=
